<?xml version="1.0" standalone="no"?>
<!DOCTYPE svg PUBLIC "-//W3C//DTD SVG 20010904//EN"
 "http://www.w3.org/TR/2001/REC-SVG-20010904/DTD/svg10.dtd">
<svg version="1.0" xmlns="http://www.w3.org/2000/svg"
 width="337.000000pt" height="150.000000pt" viewBox="0 0 337.000000 150.000000"
 preserveAspectRatio="xMidYMid meet">

<g transform="translate(0.000000,150.000000) scale(0.100000,-0.100000)"
fill="#000000" stroke="none">
<path d="M1295 1392 c-76 -40 -154 -93 -155 -104 0 -4 20 -23 45 -44 25 -20
45 -41 45 -46 0 -5 -16 -22 -35 -39 -19 -17 -35 -37 -35 -44 0 -8 -5 -17 -11
-21 -8 -5 -10 6 -7 35 4 51 -4 52 -27 4 -16 -33 -37 -163 -27 -163 2 0 17 9
33 21 39 27 37 8 -2 -26 -40 -33 -51 -23 -53 49 0 31 -2 56 -3 56 -1 0 -10
-14 -19 -32 -13 -25 -15 -49 -11 -111 3 -43 8 -81 11 -84 3 -3 17 9 31 26 15
17 31 31 36 31 19 0 8 -24 -27 -57 l-37 -34 -25 41 c-18 32 -23 51 -19 78 6
36 6 36 -8 12 -8 -14 -14 -48 -15 -77 0 -28 -5 -55 -11 -59 -17 -10 -4 -134
17 -176 9 -18 34 -53 56 -77 21 -24 36 -46 33 -49 -8 -8 -95 80 -95 95 0 7 -4
13 -8 13 -11 0 1 -74 17 -115 18 -44 47 -72 124 -117 65 -39 93 -45 68 -14 -9
10 -10 43 -5 115 5 73 3 109 -6 131 l-13 32 -19 -74 c-25 -101 -26 -102 -41
-89 -16 13 -8 91 17 160 18 48 22 141 6 141 -5 0 -10 -10 -10 -23 0 -13 -12
-42 -27 -65 l-28 -43 -27 33 c-28 34 -54 95 -45 105 3 3 18 -19 33 -49 l27
-53 14 40 c7 21 22 48 32 60 28 31 41 60 41 97 1 18 7 44 15 58 8 14 14 37 15
53 0 15 4 27 10 27 12 0 64 80 56 87 -2 3 -21 -7 -41 -22 -19 -15 -38 -26 -40
-23 -3 3 10 16 29 29 20 13 41 40 50 62 13 33 17 36 33 27 15 -10 30 -4 85 32
37 24 67 47 67 51 1 5 -3 6 -8 2 -5 -3 -13 -1 -16 5 -4 6 -1 9 6 8 6 -2 14 3
17 11 2 8 0 11 -6 7 -6 -3 -20 6 -32 21 -19 25 -20 26 -15 6 5 -17 2 -23 -9
-23 -9 0 -16 5 -16 10 0 6 -5 10 -10 10 -7 0 -7 -6 0 -19 12 -24 13 -31 1 -31
-5 0 -11 9 -14 20 -3 11 -10 20 -16 20 -17 0 -25 -28 -12 -44 6 -7 8 -16 4
-19 -12 -13 -23 -7 -23 13 0 11 -4 20 -9 20 -17 0 -22 -19 -12 -38 15 -29 0
-35 -25 -11 l-23 22 26 20 c14 11 60 40 102 64 42 25 65 42 52 38 -18 -6 -22
-4 -15 6 6 10 14 50 10 49 -1 0 -33 -17 -71 -38z m50 -9 c-13 -8 -14 -13 -5
-13 7 0 11 -3 7 -6 -14 -14 -26 7 -15 26 7 10 16 16 22 13 5 -3 1 -12 -9 -20z
m-45 -103 c0 -5 -2 -10 -4 -10 -3 0 -8 5 -11 10 -3 6 -1 10 4 10 6 0 11 -4 11
-10z"/>
<path d="M1961 1416 c29 -17 43 -42 29 -51 -6 -4 -15 -3 -22 1 -6 4 -21 -5
-34 -21 -13 -16 -26 -26 -30 -22 -4 3 -1 14 7 24 9 11 10 14 2 9 -8 -4 -13 -1
-13 9 0 9 -4 14 -9 10 -6 -3 -8 -14 -6 -25 2 -11 -2 -20 -8 -21 -7 0 3 -7 21
-15 23 -10 32 -20 28 -30 -3 -9 -1 -12 4 -9 6 3 10 1 10 -4 0 -6 -8 -11 -17
-11 -10 0 9 -16 42 -36 33 -20 71 -45 84 -55 23 -18 25 -18 43 -2 17 15 20 15
28 3 6 -8 10 -21 10 -27 0 -15 79 -97 86 -90 12 11 -27 76 -61 104 l-38 31 43
41 c37 35 41 43 29 57 -30 37 -174 124 -229 138 l-25 7 26 -15z m31 -72 c22
-11 27 -18 18 -24 -7 -4 -17 -14 -22 -21 -6 -10 -7 -7 -3 10 5 16 4 21 -4 17
-6 -4 -11 0 -11 11 0 15 -4 14 -20 -7 -21 -27 -27 -21 -10 11 13 23 13 23 52
3z m111 -73 c47 -35 47 -35 28 -55 -17 -16 -23 -17 -35 -7 -10 9 -14 22 -10
37 7 26 -13 33 -34 12 -9 -9 -12 -9 -12 -1 0 7 5 15 10 18 6 3 10 12 10 18 -1
7 -10 1 -20 -12 -15 -18 -20 -19 -20 -7 0 9 -5 16 -11 16 -5 0 -7 5 -4 10 4 6
11 8 16 5 5 -4 9 -1 9 5 0 13 10 8 73 -39z"/>
<path d="M1631 1397 c-1 -26 1 -27 39 -25 23 2 40 8 40 15 0 21 -23 27 -35 10
-17 -24 -33 -21 -38 6 -4 19 -4 18 -6 -6z"/>
<path d="M1560 1401 c0 -21 13 -41 27 -41 10 0 13 6 9 16 -3 9 -6 20 -6 25 0
5 -7 9 -15 9 -8 0 -15 -4 -15 -9z"/>
<path d="M1740 1385 c0 -24 1 -24 19 -8 21 18 19 33 -5 33 -8 0 -14 -10 -14
-25z"/>
<path d="M1518 1394 c-10 -9 4 -45 16 -41 17 5 20 47 3 47 -7 0 -16 -3 -19 -6z"/>
<path d="M1786 1384 c-9 -23 -8 -27 9 -20 8 3 15 0 16 -7 0 -7 4 -3 8 8 5 11
7 23 4 28 -7 13 -31 8 -37 -9z"/>
<path d="M1970 1391 c0 -6 4 -13 10 -16 6 -3 7 1 4 9 -7 18 -14 21 -14 7z"/>
<path d="M1457 1383 c-16 -15 -6 -38 18 -39 23 -2 23 -1 8 22 -17 27 -17 27
-26 17z"/>
<path d="M1837 1383 c-12 -11 -7 -41 7 -46 14 -6 26 12 26 39 0 14 -21 19 -33
7z m23 -13 c0 -5 -5 -10 -11 -10 -5 0 -7 5 -4 10 3 6 8 10 11 10 2 0 4 -4 4
-10z"/>
<path d="M1425 1343 c3 -16 3 -23 -1 -16 -3 7 -12 9 -20 6 -8 -3 -14 -1 -14 5
0 6 6 13 13 15 7 3 5 6 -5 6 -18 1 -23 -15 -12 -42 4 -12 11 -13 33 -6 23 8
27 15 23 34 -2 14 -8 25 -13 25 -5 0 -7 -12 -4 -27z"/>
<path d="M1643 1218 l-32 -31 -52 21 c-29 12 -53 21 -54 20 -1 -2 -12 -24 -23
-50 l-20 -47 -64 -3 -63 -3 -3 -56 -3 -56 -50 -24 c-54 -25 -55 -28 -28 -96
13 -31 12 -34 -20 -67 l-33 -34 33 -41 33 -41 -23 -46 c-25 -52 -25 -49 9 -58
18 -5 21 -5 11 3 -17 11 -18 11 128 66 52 19 96 33 99 31 12 -13 -12 -36 -79
-77 -41 -24 -76 -43 -79 -43 -3 1 -16 5 -30 8 -24 7 -24 6 3 -9 24 -14 27 -21
27 -70 l0 -55 56 0 56 0 20 -49 21 -49 40 14 c58 20 67 18 112 -26 l41 -40 38
39 39 40 49 -20 c60 -24 64 -24 71 0 3 13 0 18 -8 15 -12 -5 -32 34 -78 158
-24 63 -25 78 -5 78 17 0 118 -168 112 -187 -5 -17 -5 -17 6 0 8 13 25 17 65
17 67 0 70 13 14 55 -59 43 -166 158 -152 162 6 2 50 -21 97 -53 77 -51 85
-60 89 -93 l4 -36 1 37 c2 36 4 38 57 54 31 10 55 24 55 31 0 8 -9 31 -19 52
l-20 38 43 42 43 43 -40 38 -41 38 24 52 c20 44 22 53 10 61 -17 10 -37 12
-27 2 4 -4 -7 -13 -25 -21 -69 -29 -262 -101 -265 -98 -6 6 33 35 121 90 68
43 95 54 115 50 l26 -6 -25 14 c-21 11 -25 22 -28 66 l-3 52 -55 0 -55 0 -25
56 c-26 60 -30 61 -97 27 -26 -13 -30 -12 -66 17 -22 16 -41 30 -43 30 -2 0
-18 -14 -35 -32z m30 -70 c-8 -119 -32 -125 -48 -14 -7 41 -4 50 16 72 12 13
26 24 30 24 4 0 5 -37 2 -82z m53 51 c17 -16 21 -29 18 -58 l-4 -36 11 35 c13
43 15 45 61 64 l37 16 -41 -98 c-49 -119 -47 -115 -63 -102 -9 7 -12 25 -9 48
l4 37 -10 -33 c-10 -29 -13 -31 -31 -21 -18 9 -20 17 -15 47 3 21 6 56 6 80 0
48 5 51 36 21z m-171 -100 c58 -152 28 -153 -67 -1 -15 25 -15 30 -1 65 8 20
19 37 23 37 4 0 24 -45 45 -101z m35 16 c0 -28 -15 -34 -24 -9 -10 25 -7 34 9
34 9 0 15 -9 15 -25z m260 -30 c0 -28 -4 -35 -19 -35 -19 0 -21 7 -12 63 0 4
8 7 16 7 10 0 15 -11 15 -35z m57 -62 c-109 -107 -133 -103 -56 10 l53 77 45
0 46 0 -88 -87z m-414 -82 c3 -12 2 -21 -1 -20 -4 0 -38 21 -77 47 -55 37 -71
53 -73 75 -8 65 6 64 77 -11 38 -39 71 -80 74 -91z m-13 92 c0 -20 -28 -15
-40 6 -8 16 -6 20 8 23 18 4 32 -8 32 -29z m468 -29 c-3 -29 -27 -47 -48 -34
-12 7 -10 14 10 34 30 33 40 33 38 0z m-263 -34 c-3 -5 -13 -10 -21 -10 -8 0
-14 5 -14 10 0 6 9 10 21 10 11 0 17 -4 14 -10z m-260 -30 c3 -5 1 -10 -5 -10
-6 0 -8 -4 -5 -10 8 -13 -14 -13 -54 1 -24 9 -29 14 -19 20 18 12 75 11 83 -1z
m305 -14 c0 -15 -11 -33 -27 -46 l-27 -21 -13 23 c-11 20 -10 26 13 46 33 29
54 28 54 -2z m-362 -25 c130 -52 152 -63 152 -74 0 -5 -10 -7 -22 -4 -13 3
-52 11 -88 17 -105 18 -137 29 -143 48 -2 9 -8 25 -12 35 -10 25 3 22 113 -22z
m650 -13 c-5 -13 -78 -30 -78 -18 0 10 41 28 63 29 11 1 17 -4 15 -11z m102
-68 l35 -29 -162 -1 c-90 0 -163 4 -163 8 0 5 46 17 103 26 56 10 107 20 112
21 26 8 43 3 75 -25z m-742 3 c-10 -2 -28 -2 -40 0 -13 2 -5 4 17 4 22 1 32
-1 23 -4z m112 -52 c0 -12 -15 -16 -105 -31 -38 -6 -78 -13 -88 -15 -15 -3
-67 36 -67 50 0 3 59 5 130 5 74 0 130 -4 130 -9z m86 -16 c-5 -21 -2 -27 18
-35 13 -5 31 -19 39 -31 14 -19 14 -25 1 -51 l-15 -28 -50 26 c-56 28 -84 75
-73 119 5 21 12 25 46 25 38 0 40 -1 34 -25z m258 -2 c11 -40 -11 -79 -64
-117 -39 -28 -49 -32 -54 -20 -11 28 -6 72 8 77 8 3 24 24 37 46 28 50 63 57
73 14z m210 -13 c7 -7 -6 -10 -36 -10 -46 0 -70 13 -46 24 17 7 70 -2 82 -14z
m-56 -26 c91 -16 93 -17 108 -52 8 -19 12 -37 10 -39 -3 -4 -166 59 -228 87
-34 16 -37 34 -5 27 12 -3 64 -14 115 -23z m-608 -29 c-33 -19 -60 -19 -60 0
0 11 11 15 43 15 41 -1 42 -1 17 -15z m310 -44 c0 -15 5 -32 10 -37 7 -7 4
-17 -11 -29 -20 -19 -21 -19 -39 5 -15 20 -16 26 -4 38 8 7 17 24 20 38 8 31
24 21 24 -15z m295 5 c47 -20 45 -38 -2 -30 -48 8 -53 11 -46 29 6 18 6 18 48
1z m-441 -14 c3 -5 -18 -43 -47 -85 l-52 -77 -50 0 -50 0 85 85 c81 81 102 96
114 77z m-104 -52 c-13 -24 -51 -34 -43 -11 10 28 24 40 39 34 10 -3 11 -10 4
-23z m175 11 c6 -11 -25 -161 -37 -178 -10 -12 -58 -27 -65 -19 -7 6 78 206
88 206 4 0 10 -4 14 -9z m291 -42 l29 -31 -30 8 c-37 8 -35 7 -40 33 -5 29 6
26 41 -10z m-191 -1 c3 -13 9 -52 15 -88 10 -64 9 -65 -20 -95 l-30 -30 0 102
c0 56 3 108 6 117 9 23 23 20 29 -6z m-175 -24 c0 -21 -18 -54 -30 -54 -11 0
-14 53 -3 63 12 13 33 7 33 -9z m260 -56 c0 -19 -25 -25 -35 -8 -3 5 -3 21 1
36 7 26 8 26 20 9 8 -11 14 -27 14 -37z m-160 -3 c0 -19 -4 -35 -10 -35 -5 0
-10 16 -10 35 0 19 5 35 10 35 6 0 10 -16 10 -35z"/>
<path d="M2231 1096 c5 -27 7 -51 5 -54 -8 -8 -47 10 -66 31 l-20 21 0 -21 c0
-28 25 -55 81 -86 l45 -26 -2 42 c0 23 -2 51 -3 62 0 11 -12 34 -25 50 l-24
30 9 -49z"/>
<path d="M2298 998 c2 -31 0 -63 -5 -73 -9 -15 -14 -13 -46 18 -36 33 -37 34
-37 11 0 -28 108 -152 114 -132 21 68 13 171 -17 212 -12 17 -13 12 -9 -36z"/>
<path d="M2361 892 c-1 -18 -10 -51 -22 -74 l-21 -40 -34 33 c-19 18 -34 39
-34 45 0 7 -5 16 -12 20 -8 5 -9 -5 -4 -36 4 -28 22 -64 51 -103 l45 -59 30
64 c33 69 35 84 15 143 l-13 40 -1 -33z"/>
<path d="M2229 730 c-3 -63 2 -101 22 -143 10 -23 19 -55 19 -72 l0 -30 44 45
c23 25 50 59 59 76 19 36 35 160 20 151 -6 -4 -13 -19 -16 -34 -3 -16 -20 -48
-37 -71 l-31 -44 -39 79 c-38 75 -40 77 -41 43z"/>
<path d="M2186 580 c-13 -24 -21 -66 -26 -135 -3 -55 -9 -106 -14 -113 -11
-18 7 -15 76 13 96 39 140 89 157 180 10 52 2 58 -18 15 -7 -17 -38 -48 -71
-70 l-58 -39 -6 47 c-4 26 -11 67 -15 92 l-7 45 -18 -35z"/>
<path d="M1214 505 c17 -69 25 -105 30 -142 l6 -43 -32 0 c-46 1 -95 20 -152
59 -26 18 -49 31 -52 29 -10 -10 57 -87 102 -116 69 -46 112 -55 197 -42 71
11 92 19 70 27 -35 13 -64 50 -89 114 -25 68 -92 162 -80 114z"/>
<path d="M2088 460 c-21 -23 -42 -64 -51 -97 -9 -31 -28 -69 -43 -84 l-26 -27
39 -6 c62 -10 156 -9 184 2 33 13 92 64 120 104 l21 29 -43 -31 c-41 -28 -121
-50 -186 -50 -21 0 -21 2 -7 28 7 15 14 43 14 62 0 19 4 51 10 69 5 19 8 36 6
38 -2 2 -19 -14 -38 -37z"/>
<path d="M1370 243 c-114 -38 -168 -40 -230 -8 -49 25 -47 10 2 -21 100 -64
168 -66 310 -10 88 35 182 60 128 34 -14 -6 -48 -22 -76 -35 -58 -26 -164
-100 -164 -114 0 -23 56 -7 90 26 41 40 173 111 225 121 31 6 51 0 130 -40 51
-25 118 -66 148 -91 37 -30 65 -45 84 -45 28 1 28 1 -19 44 -44 41 -148 101
-225 132 l-38 14 41 -5 c22 -2 88 -26 145 -51 158 -70 235 -71 329 -3 52 38
46 48 -11 18 -59 -30 -128 -28 -203 5 -115 51 -150 57 -361 61 l-200 4 -105
-36z"/>
<path d="M1432 98 c-31 -31 1 -104 36 -82 28 18 27 36 -3 28 -24 -6 -26 -4
-23 17 2 18 8 23 26 21 25 -4 30 13 6 22 -22 8 -28 8 -42 -6z"/>
<path d="M1507 103 c-11 -10 -8 -81 4 -88 6 -4 13 2 16 14 7 27 19 27 26 0 9
-33 27 -12 27 31 0 43 -18 64 -27 31 -7 -27 -23 -27 -23 -1 0 20 -11 26 -23
13z"/>
<path d="M1596 103 c-11 -11 -7 -58 7 -77 10 -13 20 -16 35 -12 18 6 22 15 22
52 0 24 -4 44 -10 44 -5 0 -10 -16 -10 -35 0 -19 -4 -35 -10 -35 -5 0 -10 13
-10 29 0 30 -12 46 -24 34z"/>
<path d="M1680 60 c0 -46 2 -50 24 -50 30 0 46 19 42 51 -3 36 -14 49 -42 49
-22 0 -24 -4 -24 -50z m40 20 c0 -5 -5 -10 -11 -10 -5 0 -7 5 -4 10 3 6 8 10
11 10 2 0 4 -4 4 -10z m10 -34 c0 -11 -19 -15 -25 -6 -3 5 1 10 9 10 9 0 16
-2 16 -4z"/>
<path d="M1760 72 c0 -41 14 -62 41 -62 20 0 29 20 29 66 0 46 -18 43 -22 -3
-2 -21 -7 -38 -13 -38 -5 0 -11 17 -13 38 -4 49 -22 48 -22 -1z"/>
<path d="M1845 100 c-3 -6 1 -13 9 -16 10 -4 16 -19 16 -40 0 -19 5 -34 10
-34 6 0 10 16 10 35 0 19 5 35 10 35 6 0 10 7 10 15 0 17 -55 21 -65 5z"/>
</g>
</svg>
